<?xml version="1.0" encoding="utf-8"?>
<!-- Generator: Adobe Illustrator 16.0.4, SVG Export Plug-In . SVG Version: 6.00 Build 0)  -->
<!DOCTYPE svg PUBLIC "-//W3C//DTD SVG 1.1//EN" "http://www.w3.org/Graphics/SVG/1.1/DTD/svg11.dtd">
<svg version="1.1" id="Layer_1" xmlns="http://www.w3.org/2000/svg" xmlns:xlink="http://www.w3.org/1999/xlink" x="0px" y="0px"
	 width="100px" height="100px" viewBox="-34.353 0 100 100" enable-background="new -34.353 0 100 100" xml:space="preserve">
<g>
	<path fill="#FFFFFF" d="M26.594,23.461c2.257,1.977,4.925,3.085,7.511,3.322c-3.574,4.291-11.971,14.345-19.868,23.097
		C8.864,55.832-6.706,70.336-10.175,75.2c-1.849,2.596-4.265,8.195-5.317,10.853c-1.059,2.66-2.202,5.892-3.231,7.046
		c-1.027,1.151-13.536,1.118-14.629,0.142c-1.091-0.977-0.622-2.846-0.406-4.067c0.218-1.225,6.467-7.865,11.343-14.527
		c4.874-6.666,17.452-18.925,18.911-20.529c19.291-21.173,16.594-22.147,18.066-24.649c1.473-2.507,5.067-11.023,5.603-11.748
		c0.267-0.359,1.16-0.997,2.087-1.642C22.761,18.736,24.229,21.386,26.594,23.461z"/>
	<path fill="#FFFFFF" d="M29.187-0.013c0,0,1.979,1.328,3.485,2.453c0.229,0.17,0.646,0.498,1.195,0.927
		c0.438-0.537,0.709-0.86,0.709-0.86s4.28,3.271,5.968,4.558c1.687,1.288,5.647,5.035,5.647,5.035s-0.206,0.26-0.561,0.692
		c1.977,1.684,7.458,6.745,10.922,9.208c3.604,2.559,9.659,6.652,9.659,6.652s-3.035,3.4-3.956,4.433
		c-0.92,1.032-1.561,1.875-7.586,7.408c-6.025,5.53-12.167,9.152-12.167,9.152s-1.718-7.857-1.708-12.753
		c0.011-4.902-0.884-9.405-1.286-10.418c-0.401-1.015-2.655-2.473-2.904-2.692c-2.634,0.66-5.834-0.078-8.316-2.253
		c-2.372-2.079-3.546-4.931-3.374-7.531c-2.332-1.667-4.448-3.096-4.448-3.096s1.347-2.612,2.703-4.129
		C24.523,5.254,29.187-0.013,29.187-0.013z"/>
</g>
</svg>
