<?xml version="1.0" encoding="utf-8"?>
<!-- Generator: Adobe Illustrator 16.0.4, SVG Export Plug-In . SVG Version: 6.00 Build 0)  -->
<!DOCTYPE svg PUBLIC "-//W3C//DTD SVG 1.1//EN" "http://www.w3.org/Graphics/SVG/1.1/DTD/svg11.dtd">
<svg version="1.1" xmlns="http://www.w3.org/2000/svg" xmlns:xlink="http://www.w3.org/1999/xlink" x="0px" y="0px" width="100px"
	 height="100px" viewBox="-34.353 0 100 100" enable-background="new -34.353 0 100 100" xml:space="preserve">
<g id="Layer_1" display="none">
	<g display="inline">
		<path fill="#C2C8D2" d="M26.594,23.461c2.257,1.977,4.925,3.085,7.511,3.322c-3.574,4.291-11.971,14.345-19.868,23.097
			C8.864,55.832-6.706,70.336-10.175,75.2c-1.849,2.596-4.265,8.195-5.317,10.853c-1.059,2.66-2.202,5.892-3.231,7.046
			c-1.027,1.151-13.536,1.118-14.629,0.142c-1.091-0.977-0.622-2.846-0.406-4.067c0.218-1.225,6.467-7.865,11.343-14.527
			c4.874-6.666,17.452-18.925,18.911-20.529c19.291-21.173,16.594-22.147,18.066-24.649c1.473-2.507,5.067-11.023,5.603-11.748
			c0.267-0.359,1.16-0.997,2.087-1.642C22.761,18.736,24.229,21.386,26.594,23.461z"/>
		<path fill="#C2C8D2" d="M29.187-0.013c0,0,1.979,1.328,3.485,2.453c0.229,0.17,0.646,0.498,1.195,0.927
			c0.438-0.537,0.709-0.86,0.709-0.86s4.28,3.271,5.968,4.558c1.687,1.288,5.647,5.035,5.647,5.035s-0.206,0.26-0.561,0.692
			c1.977,1.684,7.458,6.745,10.922,9.208c3.604,2.559,9.659,6.652,9.659,6.652s-3.035,3.4-3.956,4.433
			c-0.92,1.032-1.561,1.875-7.586,7.408c-6.025,5.53-12.167,9.152-12.167,9.152s-1.718-7.857-1.708-12.753
			c0.011-4.902-0.884-9.405-1.286-10.418c-0.401-1.015-2.655-2.473-2.904-2.692c-2.634,0.66-5.834-0.078-8.316-2.253
			c-2.372-2.079-3.546-4.931-3.374-7.531c-2.332-1.667-4.448-3.096-4.448-3.096s1.347-2.612,2.703-4.129
			C24.523,5.254,29.187-0.013,29.187-0.013z"/>
	</g>
</g>
<g id="Layer_3">
	<g>
		<path fill="#FFFFFF" d="M14.64,19.277C3.663,13.014-8.115,9.234-19.526,8.313v64.218c11.41,0.896,23.167,4.571,34.166,10.674
			V19.277z"/>
		<path fill="#FFFFFF" d="M50.82,8.313c-11.409,0.922-23.188,4.7-34.166,10.963v63.928c10.999-6.104,22.759-9.779,34.166-10.674
			V8.313z"/>
		<path fill="#FFFFFF" d="M14.266,86.527c0.896,0.307,1.84,0.319,2.735,0.013c12.829-5.55,26.265-8.049,39.396-7.473v-63.58
			c-1.182-0.053-2.371-0.065-3.565-0.061v58.982l-0.938,0.062C40.15,75.239,27.978,79.068,16.654,85.53
			c-0.653,0.223-1.36,0.223-2.014,0C3.316,79.068-8.854,75.239-20.6,74.472l-0.94-0.062V15.427
			c-1.193-0.004-2.384,0.007-3.564,0.061v63.58C-11.972,78.491,1.434,80.978,14.266,86.527z"/>
		<path fill="#FFFFFF" d="M61.975,22.625c-1.178-0.164-2.374-0.25-3.562-0.369v58.935l-1.065-0.062
			c-13.42-0.77-27.579,1.956-40.693,7.774l-1.008,0.42l-1.007-0.42c-13.115-5.818-27.272-8.545-40.693-7.774l-1.064,0.062V22.256
			c-1.19,0.119-2.386,0.206-3.563,0.369v64.609c0.653,0.339,1.149,0.823,1.149,0.823c14.253-1.926,29.047-1.69,43.119,2.918
			c0.647-0.064,1.334-0.105,2.062-0.105c0.727,0,1.414,0.041,2.06,0.105c14.07-4.609,28.866-4.844,43.119-2.918
			c0,0,0.521-0.509,1.148-0.823V22.625z"/>
	</g>
</g>
<g id="Layer_2" display="none">
	<path display="inline" fill="#32324E" d="M20.595,2.588c1.072,2.259,0.109,4.96-2.151,6.031L-3.258,18.913
		c-2.259,1.071-4.96,0.108-6.031-2.151l0,0c-1.071-2.259-0.108-4.959,2.151-6.032L14.564,0.437
		C16.823-0.634,19.523,0.329,20.595,2.588L20.595,2.588z"/>
	<path display="inline" fill="#32324E" d="M41.604,7.266c1.072,2.259-0.26,5.135-2.974,6.422L-2.501,33.195
		c-2.714,1.288-5.783,0.499-6.855-1.761l0,0c-1.071-2.258,0.261-5.134,2.975-6.421L34.75,5.505
		C37.464,4.219,40.533,5.006,41.604,7.266L41.604,7.266z"/>
	<path display="inline" fill="#32324E" d="M41.605,21.729c1.071,2.259-0.262,5.135-2.977,6.42L-2.501,47.658
		c-2.714,1.288-5.784,0.5-6.855-1.76l0,0c-1.071-2.26,0.261-5.135,2.975-6.422L34.75,19.968
		C37.465,18.682,40.534,19.47,41.605,21.729L41.605,21.729z"/>
	<path display="inline" fill="#32324E" d="M-6.601,48.143l0.673,0.247l-0.001,0.003c8.32,1.543,10.808,6.932,11.159,10.936h9.057
		C13.894,51.26,8.862,41.913-3.707,39.582c-2.36-0.438-4.766,0.476-5.596,2.754C-10.16,44.688-8.951,47.286-6.601,48.143z"/>
	<path display="inline" fill="#32324E" d="M38.998,48.143l-0.674,0.247l0.002,0.003c-8.319,1.543-10.809,6.932-11.159,10.936h-9.056
		c0.392-8.068,5.424-17.415,17.992-19.747c2.361-0.438,4.766,0.476,5.596,2.754C42.557,44.688,41.348,47.286,38.998,48.143z"/>
	<path display="inline" fill="#32324E" d="M9.354,84.925h13.542c5.997,0,10.856-6.827,10.856-15.246H-1.502
		C-1.502,78.098,3.358,84.925,9.354,84.925z"/>
	<rect x="-1.502" y="58.148" display="inline" fill="#32324E" width="35.255" height="12.71"/>
	<path display="inline" fill="#32324E" d="M14.989,57.667c0,0.88-0.438,1.595-0.978,1.595H5.072c-0.54,0-0.978-0.715-0.978-1.595
		l0,0c0-0.882,0.438-1.596,0.978-1.596h8.939C14.551,56.071,14.989,56.785,14.989,57.667L14.989,57.667z"/>
	<path display="inline" fill="#32324E" d="M28.155,57.667c0,0.88-0.438,1.595-0.979,1.595h-8.938c-0.539,0-0.978-0.715-0.978-1.595
		l0,0c0-0.882,0.438-1.596,0.978-1.596h8.938C27.717,56.071,28.155,56.785,28.155,57.667L28.155,57.667z"/>
	<g display="inline">
		<path fill="#32324E" d="M23.527,84.925c0.034-4.538-0.112-9.623-1.016-9.623H9.739c-0.902,0-1.05,5.085-1.018,9.623H23.527z"/>
		<path fill="#32324E" d="M8.756,87.446c0.042,2.137,0.104,3.834,0.104,4.302c0,1.546,1.252,2.798,2.796,2.798h8.931
			c1.546,0,2.799-1.252,2.799-2.798c0-0.468,0.062-2.165,0.104-4.302H8.756z"/>
	</g>
	<path display="inline" fill="#32324E" d="M19.792,93.852c0,2.024-1.642,3.668-3.667,3.668l0,0c-2.026,0-3.669-1.644-3.669-3.668
		v-0.971c0-2.024,1.643-3.668,3.669-3.668l0,0c2.026,0,3.667,1.644,3.667,3.668V93.852z"/>
</g>
</svg>
