<?xml version="1.0" encoding="utf-8"?>
<!-- Generator: Adobe Illustrator 16.0.4, SVG Export Plug-In . SVG Version: 6.00 Build 0)  -->
<!DOCTYPE svg PUBLIC "-//W3C//DTD SVG 1.1//EN" "http://www.w3.org/Graphics/SVG/1.1/DTD/svg11.dtd">
<svg version="1.1" id="Layer_1" xmlns="http://www.w3.org/2000/svg" xmlns:xlink="http://www.w3.org/1999/xlink" x="0px" y="0px"
	 width="585.287px" height="100.056px" viewBox="0 0 585.287 100.056" enable-background="new 0 0 585.287 100.056"
	 xml:space="preserve">
<g>
	<path fill-rule="evenodd" clip-rule="evenodd" fill="#FFFFFF" d="M403.11,36.385c4.692-8.529,9.431-17.032,14.059-25.593
		c3.324-6.143,3.26-6.179,10.306-6.178c2.547,0,5.098-0.069,7.642,0.026c3.477,0.13,4.136,1.358,2.357,4.348
		c-5.775,9.703-11.517,19.429-17.425,29.051c-1.417,2.306-1.599,4.294-0.668,6.821c5.738,15.576,11.346,31.2,16.969,46.819
		c0.364,1.01,1.081,1.978,0.691,3.213c-1.165,0.849-2.535,0.456-3.823,0.491c-2.324,0.062-4.651,0.018-6.977,0.017
		c-6.312-0.001-6.774-0.485-8.754-6.627c-3.383-10.501-6.937-20.947-10.447-31.498c-2.354,1.958-5.906,8.529-5.986,11.167
		c-0.242,7.851-1.224,15.66-1.285,23.521c-0.024,3.198-0.252,3.381-3.429,3.427c-2.657,0.038-5.317,0.062-7.973-0.009
		c-3.175-0.086-4.192-1.23-3.998-4.307c0.547-8.721,0.916-17.449,1.299-26.18c0.626-14.25,1.646-28.482,2.416-42.727
		c0.262-4.859,0.186-9.728,0.64-14.591c0.219-2.334,1.058-3.08,3.254-2.986c2.654,0.114,5.316-0.024,7.974,0.044
		c3.449,0.087,4.189,1.081,3.996,4.458c-0.325,5.632-0.468,11.275-0.753,16.912C403.022,29.417,402.267,32.804,403.11,36.385z"/>
	<path fill-rule="evenodd" clip-rule="evenodd" fill="#FFFFFF" d="M106.225,66.751c0.642-10.926,1.36-21.85,1.89-32.782
		c0.214-4.446,0.616-8.806,2.029-13.062c3.384-10.194,10.262-15.875,21.036-17.032c7.691-0.826,14.653,0.352,20.93,5.241
		c5.454,4.248,8.164,9.874,8.877,16.465c0.797,7.375,0.16,14.777-0.335,22.166c-0.407,6.07-0.494,12.161-0.903,18.231
		c-0.396,5.853-1.059,11.66-3.832,17.02c-4.174,8.067-10.75,12.326-19.764,13.113c-3.783,0.33-7.56,0.368-11.187-0.596
		c-11.831-3.146-17.652-11.527-18.591-23.778c-0.127-1.652-0.018-3.32-0.018-4.981C106.312,66.755,106.269,66.753,106.225,66.751z
		 M121.873,67.252c0,2.875-0.188,5.766,0.056,8.619c0.218,2.539,0.843,5.293,3.316,6.533c5.057,2.535,13.97,1.886,17.085-5.288
		c0.93-2.142,1.647-4.368,1.755-6.705c0.244-5.296,0.755-10.572,0.847-15.885c0.114-6.622,0.776-13.231,1.076-19.854
		c0.195-4.295,0.621-8.616-0.621-12.86c-0.771-2.635-2.215-4.367-5.039-5.117c-8.729-2.319-15.725,2.748-16.524,12.172
		C122.741,41.641,122.382,54.453,121.873,67.252z"/>
	<path fill-rule="evenodd" clip-rule="evenodd" fill="#FFFFFF" d="M362.41,95.16c-4.041,0.43-7.686,0.325-11.305,0.139
		c-2.14-0.111-3.114-1.691-3.651-3.722c-2.546-9.626-5.184-19.229-7.793-28.84c-0.58-2.135-1.244-4.25-1.734-6.405
		c-0.351-1.54-1.088-2.321-2.733-2.179c-0.99,0.087-1.993,0.053-2.988,0.015c-1.51-0.058-2.271,0.594-2.257,2.144
		c0.028,3.325-0.594,6.602-0.701,9.93c-0.286,8.846-0.851,17.683-1.246,26.524c-0.079,1.75-0.699,2.669-2.569,2.634
		c-3.1-0.057-6.206,0.073-9.303-0.041c-2.725-0.102-3.747-1.395-3.445-4.08c0.684-6.054,0.518-12.15,0.9-18.224
		c0.757-12.031,1.465-24.072,1.954-36.117c0.31-7.63,0.938-15.247,0.998-22.889c0.02-2.43,0.342-4.856,0.481-7.285
		c0.073-1.303,0.607-2.142,1.995-2.107c9.05,0.225,18.241-1.205,27.105,1.359c12.704,3.675,17.746,12.28,16.753,24.709
		c-0.37,4.649-1.395,9.19-3.957,13.237c-1.508,2.38-3.283,4.568-5.835,5.763c-1.971,0.923-2.188,2.11-1.676,3.945
		c2.08,7.461,4.102,14.938,6.144,22.409c1.429,5.23,2.868,10.458,4.271,15.697C362.069,92.721,362.161,93.708,362.41,95.16z
		 M347.61,27.989c0.047-8.082-2.432-10.864-10.15-11.646c-0.66-0.067-1.326-0.069-1.99-0.076c-3.415-0.038-3.406-0.034-3.606,3.498
		c-0.063,1.104-0.202,2.202-0.301,3.303c-0.503,5.619-0.217,11.279-0.884,16.893c-0.148,1.26-0.033,2.551,1.759,2.532
		c5.927-0.063,12.67-1.872,14.5-9.531C347.351,31.235,347.751,29.514,347.61,27.989z"/>
	<path fill-rule="evenodd" clip-rule="evenodd" fill="#FFFFFF" d="M51.044,64.938c0.612-12.364,0.682-24.764,2.028-37.082
		c0.659-6.027,2.597-11.695,6.706-16.332c5.674-6.401,13.204-8.222,21.336-7.946c6.108,0.208,11.632,2.121,16.396,6.275
		c4.427,3.86,6.772,8.682,7.695,14.285c0.847,5.147,0.549,10.312,0.289,15.529c-0.353,7.063-0.844,14.13-0.977,21.211
		c-0.104,5.531-0.531,11.044-1.969,16.43c-2.627,9.84-9.669,18.048-22.443,18.844c-3.347,0.209-6.65,0.192-9.884-0.457
		c-11.098-2.224-18.763-11.407-19.162-22.785C50.965,70.254,51.044,67.595,51.044,64.938z M65.939,69.135
		c0.038,0.002,0.076,0.003,0.115,0.005c0,1.881-0.212,3.793,0.046,5.638c0.461,3.301,0.993,6.913,4.737,8.091
		c7.557,2.377,16.126,0.146,17.475-11c0.905-7.477,0.591-15.029,1.382-22.503c0.596-5.628,0.262-11.287,0.807-16.889
		c0.305-3.131,0.35-6.185-0.295-9.21c-0.556-2.605-1.339-5.297-4.311-6.21c-6.668-2.046-15.159-0.527-17.292,9.411
		c-0.731,3.413-0.544,6.825-0.761,10.233C67.155,47.509,66.567,58.324,65.939,69.135z"/>
	<path fill-rule="evenodd" clip-rule="evenodd" fill="#FFFFFF" d="M49.679,95.216c-3.942,0.347-7.696,0.333-11.423,0.059
		c-1.982-0.146-2.837-1.69-3.339-3.603c-2.304-8.775-4.731-17.518-7.114-26.271c-0.813-2.986-1.557-5.995-2.456-8.954
		c-0.704-2.321-2.167-2.715-6.035-2.281c-2.217,0.248-1.836,1.794-1.961,3.164c-0.672,7.387-0.85,14.802-1.25,22.205
		c-0.232,4.307-0.809,8.596-0.64,12.921c0.081,2.061-0.743,3.057-2.926,2.977c-2.876-0.104-5.762,0.041-8.639-0.044
		c-2.963-0.087-4.032-1.137-3.882-4.113C0.526,81.114,1.155,70.958,1.731,60.8c0.295-5.192,0.457-10.396,0.667-15.587
		C2.857,33.934,3.87,22.685,4.025,11.389c0.093-6.781,0.278-6.852,7.089-6.758c6.411,0.087,12.833-0.421,19.232,0.616
		c5.918,0.959,10.879,3.616,15.048,7.821c2.152,2.171,3.583,4.809,4.084,7.839c1.212,7.329,1.199,14.562-2.248,21.397
		c-1.625,3.221-3.802,6.048-7.103,7.672c-1.687,0.83-1.816,1.769-1.361,3.412c3.43,12.368,6.772,24.76,10.145,37.142
		C49.287,91.91,49.779,93.266,49.679,95.216z M18.075,36.284c0.026,0.002,0.051,0.004,0.077,0.006c0,1.435,0.009,2.871-0.002,4.306
		c-0.01,1.189,0.511,1.744,1.744,1.922c5.395,0.78,11.836-2.752,13.798-7.697c1.244-3.135,1.788-6.431,1.261-9.747
		c-0.505-3.177-1.292-6.384-4.928-7.612c-2.747-0.928-5.581-1.24-8.477-1.2c-1.54,0.022-2.14,0.729-2.234,2.208
		C18.932,24.41,18.493,30.347,18.075,36.284z"/>
	<path fill-rule="evenodd" clip-rule="evenodd" fill="#FFFFFF" d="M500.021,4.622c4.573-0.092,10.117-0.192,15.521,1.31
		c12.374,3.438,18.274,12.515,16.862,25.216c-0.395,3.54-0.963,7.012-2.479,10.268c-1.625,3.493-3.83,6.592-7.311,8.335
		c-2.015,1.01-2.006,2.14-1.51,3.94c3.326,12.05,6.582,24.119,9.858,36.182c0.232,0.854,0.485,1.705,0.674,2.57
		c0.56,2.561,0.35,2.858-2.34,2.937c-2.214,0.066-4.43,0.036-6.646,0.016c-3.66-0.034-4.603-0.677-5.67-4.277
		c-1.131-3.817-2.112-7.68-3.143-11.527c-2.034-7.585-4.048-15.176-6.097-22.757c-0.278-1.03-0.352-2.42-1.738-2.538
		c-1.958-0.167-3.997-0.558-5.877,0.292c-0.776,0.351-0.608,1.362-0.627,2.121c-0.21,8.958-1.403,17.87-1.311,26.841
		c0.034,3.226-0.621,6.389-0.68,9.6c-0.026,1.492-0.717,2.236-2.234,2.228c-3.211-0.017-6.427,0.098-9.633-0.043
		c-2.439-0.107-3.62-1.37-3.374-3.533c0.576-5.067,0.479-10.166,0.819-15.246c0.753-11.254,1.051-22.539,1.611-33.806
		c0.587-11.817,1.294-23.628,1.871-35.446c0.097-1.991,0.908-2.747,2.851-2.701C492.632,4.676,495.845,4.622,500.021,4.622z
		 M517.167,27.961c0.05-8.19-2.068-10.632-9.773-11.588c-5.217-0.646-5.42-0.491-6.089,4.644c-0.042,0.328-0.141,0.649-0.169,0.978
		c-0.524,6.044-0.053,12.136-0.905,18.167c-0.162,1.146,0.073,2.095,1.613,2.357c5.945,1.011,12.872-3.207,14.553-8.991
		C516.954,31.609,517.28,29.654,517.167,27.961z"/>
	<path fill-rule="evenodd" clip-rule="evenodd" fill="#FFFFFF" d="M561.417,96.125c-13.369,1.343-25.143-7.393-27.589-20.126
		c-1.484-7.724-1.485-7.726,6.064-9.753c1.388-0.372,2.771-0.781,4.181-1.062c2.951-0.589,4.191,0.245,4.442,3.265
		c0.247,2.981,0.43,5.928,1.428,8.805c1.654,4.774,4.245,6.768,8.763,6.438c5.085-0.372,7.83-2.65,8.667-7.564
		c0.882-5.173-0.855-9.591-4.419-13.34c-4.057-4.267-8.812-7.732-13.257-11.554c-4.173-3.587-8.721-6.737-11.481-11.813
		c-6.062-11.144-3.109-25.352,6.901-31.994c8.644-5.736,22.418-4.968,30.629,1.436c5.475,4.272,8.521,9.744,9.411,16.538
		c0.385,2.939,0.041,3.464-2.805,4.159c-2.793,0.682-5.573,1.417-8.383,2.025c-2.742,0.594-4.017-0.292-4.202-3.065
		c-0.166-2.46-0.608-4.838-1.506-7.112c-1.492-3.775-4.632-5.497-9.082-5.101c-4.256,0.379-7.784,3.129-8.339,6.868
		c-0.79,5.315,0.221,10.199,4.491,13.886c5.108,4.41,10.282,8.748,15.479,13.053c8.73,7.232,12.906,16.37,11.786,27.763
		c-0.892,9.068-9.475,17.275-18.939,18.127C562.777,96.084,561.891,96.102,561.417,96.125z"/>
	<path fill-rule="evenodd" clip-rule="evenodd" fill="#FFFFFF" d="M457.917,42.277c3.855,0.469,7.389,0.169,10.908,0.249
		c3.997,0.09,4.815,0.944,4.705,4.999c-0.007,0.222-0.015,0.444-0.025,0.665c-0.28,5.972-0.28,5.966-6.303,5.977
		c-2.992,0.005-5.982,0.037-8.974,0.071c-0.207,0.003-0.412,0.139-0.618,0.215c-0.523,0.518-0.518,1.203-0.56,1.857
		c-0.529,8.28-0.516,16.59-1.355,24.852c-0.187,1.837,0.497,2.622,2.408,2.595c4.985-0.071,9.973-0.047,14.959-0.009
		c3.782,0.03,4.557,0.77,4.509,4.469c-0.107,8.453,0.531,7.104-7.075,7.168c-8.42,0.069-16.843,0.025-25.264,0.01
		c-4.653-0.008-5.349-0.613-5.173-5.13c0.439-11.278,1.129-22.544,1.81-33.812c0.366-6.072,0.574-12.165,0.764-18.247
		c0.318-10.181,1.592-20.312,1.47-30.509c-0.025-2.212,0.896-3.134,3.202-3.115c10.082,0.082,20.166,0.004,30.249,0.053
		c3.444,0.018,4.31,1.042,4.106,4.401c-0.007,0.111-0.017,0.221-0.023,0.332c-0.4,6.875-0.4,6.875-7.459,6.876
		c-4.21,0.001-8.421,0.028-12.631-0.006c-1.542-0.013-2.502,0.351-2.571,2.181C458.679,26.254,458.288,34.087,457.917,42.277z"/>
	<path fill-rule="evenodd" clip-rule="evenodd" fill="#FFFFFF" d="M186.532,4.613c6.421,0,12.844-0.029,19.264,0.01
		c3.74,0.023,4.475,0.792,4.485,4.51c0.006,1.77-0.102,3.542-0.101,5.312c0.002,2.109-1.071,2.961-3.109,2.939
		c-3.432-0.039-6.865-0.042-10.296,0.018c-2.812,0.048-2.93,0.232-3.06,3.069c-0.695,15.244-1.258,30.497-2.152,45.729
		c-0.505,8.609-0.761,17.228-1.274,25.833c-0.188,3.146-0.331,3.331-3.528,3.37c-2.657,0.033-5.316,0.066-7.971-0.014
		c-2.981-0.091-4.057-1.103-3.955-4.057c0.206-5.968,0.567-11.931,0.898-17.893c0.307-5.518,0.74-11.03,0.971-16.551
		c0.481-11.488,0.869-22.981,1.897-34.439c0.069-0.771,0.01-1.552,0.082-2.322c0.186-2.009-0.732-2.803-2.708-2.753
		c-2.767,0.069-5.539,0.084-8.302-0.029c-3.777-0.153-4.898-1.411-4.735-5.174c0.067-1.544,0.466-3.087,0.411-4.62
		c-0.088-2.417,1.097-2.993,3.255-2.968C173.247,4.664,179.89,4.614,186.532,4.613z"/>
	<path fill-rule="evenodd" clip-rule="evenodd" fill="#FFFFFF" d="M303.159,16.984c-1.551,0-3.101-0.021-4.65,0.005
		c-3.044,0.05-3.471,0.344-3.643,3.386c-0.266,4.747-0.471,9.502-0.668,14.247c-0.445,10.721-0.94,21.44-1.572,32.148
		c-0.501,8.5-0.791,17.006-1.224,25.507c-0.113,2.207-0.805,3.253-3.138,3.147c-2.764-0.123-5.537,0.029-8.303-0.045
		c-3.128-0.084-4.127-1.109-4.037-4.312c0.105-3.757,0.393-7.509,0.595-11.264c0.843-15.679,1.749-31.355,2.479-47.041
		c0.185-3.979,0.612-7.94,0.734-11.916c0.104-3.38-0.304-3.751-3.785-3.84c-2.656-0.068-5.316,0.03-7.971-0.043
		c-3.023-0.084-4.011-1.078-3.943-4.048c0.048-2.097,0.333-4.188,0.467-6.285c0.086-1.368,0.795-1.984,2.125-1.986
		c0.664-0.001,1.328-0.028,1.993-0.028c12.513-0.002,25.025-0.008,37.538,0.003c4.652,0.005,5.209,0.567,5.192,5.126
		c-0.007,1.661-0.077,3.321-0.092,4.981c-0.015,1.639-0.715,2.408-2.45,2.306c-1.875-0.109-3.764-0.024-5.646-0.024
		C303.159,17,303.159,16.993,303.159,16.984z"/>
	<path fill-rule="evenodd" clip-rule="evenodd" fill="#FFFFFF" d="M371.826,95.396c-0.998,0.003-1.995,0.01-2.991,0.002
		c-4.545-0.033-5.493-0.794-5.136-5.191c0.787-9.709,0.855-19.454,1.697-29.164c0.487-5.611,0.451-11.273,0.754-16.914
		c0.653-12.155,1.194-24.316,1.98-36.465c0.146-2.261,0.859-3.184,3.15-3.076c2.765,0.129,5.541-0.038,8.309,0.057
		c2.764,0.096,3.82,1.226,3.685,3.919c-0.869,17.241-1.884,34.475-2.6,51.721c-0.235,5.64-0.873,11.251-0.891,16.908
		c-0.016,5.086-0.493,10.168-0.66,15.256c-0.066,2.049-0.797,3.106-2.978,2.96C374.713,95.316,373.267,95.393,371.826,95.396z"/>
	<path fill-rule="evenodd" clip-rule="evenodd" fill="#FFFFFF" d="M239.479,42.339c8.84,7.069,18.573,13.461,20.914,25.819
		c1.019,5.383,1.012,10.811-1.515,15.918c-0.846,1.708-0.94,1.729-3.253,1.896c1.294,1.572,0.346,2.653-0.672,3.712
		c-2.847,2.96-6.338,4.788-10.28,5.798c-1.629,0.417-3.33,0.646-3.206,2.997c0.059,1.1-0.783,1.527-1.777,1.533
		c-3.102,0.021-6.207,0.1-9.304-0.022c-1.915-0.075-3.083-1.224-3.048-3.228c0.027-1.529-0.638-2.414-1.975-3.11
		c-8.722-4.548-12.925-12.069-14.006-21.587c-0.417-3.679-0.087-4.111,3.526-5.021c2.363-0.595,4.706-1.278,7.086-1.778
		c3.347-0.704,4.561,0.193,4.773,3.577c0.181,2.887,0.463,5.74,1.409,8.491c1.682,4.887,4.523,6.842,9.167,6.321
		c5.23-0.586,8.073-3.413,8.481-8.552c0.122-1.528,0.019-3.074,0.019-5.377c4.206,3.377,4.965,8.211,7.896,11.671
		c-4.98-12.839-9.961-25.679-14.941-38.518C239.007,42.699,239.243,42.52,239.479,42.339z"/>
	<path fill-rule="evenodd" clip-rule="evenodd" fill="#FFFFFF" d="M238.893,0c1.108,0,2.216,0,3.323,0
		c2.262,0.001,3.968,0.733,4.038,3.331c0.049,1.799,1.519,1.959,2.664,2.525c5.522,2.733,9.901,6.609,12.519,12.314
		c1.226,2.671,1.457,5.549,1.965,8.371c0.282,1.57-0.423,2.512-2.004,2.87c-3.13,0.707-6.233,1.53-9.373,2.188
		c-2.693,0.564-3.892-0.372-4.098-3.215c-0.122-1.669-0.332-3.304-0.776-4.909c-1.811-6.536-7.542-9.082-13.722-6.106
		c-3.452,1.66-3.911,1.535-5.364-1.885c-0.995-2.342-1.832-4.75-2.764-7.12c-0.496-1.258-0.244-2.125,1.121-2.586
		c0.941-0.318,1.826-0.823,2.78-1.083c1.605-0.435,2.859-1.047,2.95-3.009c0.057-1.189,0.946-1.666,2.089-1.665
		c1.552,0.001,3.102,0,4.653,0C238.893,0.014,238.893,0.007,238.893,0z"/>
	<path fill-rule="evenodd" clip-rule="evenodd" fill="#FFFFFF" d="M243.666,64.371c-0.853,0.042-1.295-0.313-1.671-0.71
		c-5.951-6.282-12.952-11.353-19.54-16.894c-8.127-6.835-11.401-19.001-7.525-28.901c0.417-1.066,0.579-2.662,2.069-2.697
		c1.338-0.032,1.986,1.273,2.553,2.346c4.555,8.587,9.081,17.19,13.624,25.784c3.149,5.957,6.324,11.9,9.456,17.866
		C243.125,62.106,243.898,62.984,243.666,64.371z"/>
</g>
</svg>
